HIERARCHY
ROOT Hips
{
  OFFSET 54.8764 84.4731 4.26724
  CHANNELS 6 Xposition Yposition Zposition Zrotation Xrotation Yrotation
  JOINT spine
  {
    OFFSET 0 5.95438 0.342407
    CHANNELS 3 Zrotation Xrotation Yrotation
    JOINT spine1
    {
      OFFSET 0 8.85602 0
      CHANNELS 3 Zrotation Xrotation Yrotation
      JOINT spine2
      {
        OFFSET 0 8.48567 0
        CHANNELS 3 Zrotation Xrotation Yrotation
        JOINT Neck
        {
          OFFSET 0 21.7863 1.0387
          CHANNELS 3 Zrotation Xrotation Yrotation
          JOINT Head
          {
            OFFSET 0 6.5822 0
            CHANNELS 3 Zrotation Xrotation Yrotation
            End Site
            {
              OFFSET 0 15.9326 -5.25436
            }
          }
        }
        JOINT RightShoulder
        {
          OFFSET -3.57307 9.16386 -0.497525
          CHANNELS 3 Zrotation Xrotation Yrotation
          JOINT RightArm
          {
            OFFSET 0 12.0192 0
            CHANNELS 3 Zrotation Xrotation Yrotation
            JOINT RightArmRoll
            {
              OFFSET 0 6.06754 0
              CHANNELS 3 Zrotation Xrotation Yrotation
              JOINT RightForeArm
              {
                OFFSET 0 17.6726 0
                CHANNELS 3 Zrotation Xrotation Yrotation
                JOINT RightForeArmRoll
                {
                  OFFSET 0 6.80872 0
                  CHANNELS 3 Zrotation Xrotation Yrotation
                  JOINT RightHand
                  {
                    OFFSET 0 13.6636 0
                    CHANNELS 3 Zrotation Xrotation Yrotation
                    End Site
                    {
                      OFFSET 0 0 0
                    }
                  }
                }
              }
            }
          }
        }
        JOINT LeftShoulder
        {
          OFFSET 3.57307 9.16386 -0.497525
          CHANNELS 3 Zrotation Xrotation Yrotation
          JOINT LeftArm
          {
            OFFSET 0 12.0192 0
            CHANNELS 3 Zrotation Xrotation Yrotation
            JOINT LeftArmRoll
            {
              OFFSET 0 6.06755 0
              CHANNELS 3 Zrotation Xrotation Yrotation
              JOINT LeftForeArm
              {
                OFFSET 0 17.6726 0
                CHANNELS 3 Zrotation Xrotation Yrotation
                JOINT LeftForeArmRoll
                {
                  OFFSET 0 6.80872 0
                  CHANNELS 3 Zrotation Xrotation Yrotation
                  JOINT LeftHand
                  {
                    OFFSET 0 13.6636 0
                    CHANNELS 3 Zrotation Xrotation Yrotation
                    End Site
                    {
                      OFFSET 0 0 0
                    }
                  }
                }
              }
            }
          }
        }
      }
    }
  }
  JOINT RightUpLeg
  {
    OFFSET -5.27774 -0.967797 -0.811858
    CHANNELS 3 Zrotation Xrotation Yrotation
    JOINT RightUpLegRoll
    {
      OFFSET 0 16.0214 0
      CHANNELS 3 Zrotation Xrotation Yrotation
      JOINT RightLeg
      {
        OFFSET 0 -19.8401 0
        CHANNELS 3 Zrotation Xrotation Yrotation
        JOINT RightLegRoll
        {
          OFFSET 0 19.905 0
          CHANNELS 3 Zrotation Xrotation Yrotation
          JOINT RightFoot
          {
            OFFSET 0 16.5675 0
            CHANNELS 3 Zrotation Xrotation Yrotation
            JOINT RightToeBase
            {
              OFFSET 0 13.8496 0
              CHANNELS 3 Zrotation Xrotation Yrotation
              End Site
              {
                OFFSET 0.00587034 6.70727 -0.773117
              }
            }
          }
        }
      }
    }
  }
  JOINT LeftUpLeg
  {
    OFFSET 5.27774 -0.967797 -0.811858
    CHANNELS 3 Zrotation Xrotation Yrotation
    JOINT LeftUpLegRoll
    {
      OFFSET 0 16.0215 0
      CHANNELS 3 Zrotation Xrotation Yrotation
      JOINT LeftLeg
      {
        OFFSET 0 19.84 0
        CHANNELS 3 Zrotation Xrotation Yrotation
        JOINT LeftLegRoll
        {
          OFFSET 0 20.089 0
          CHANNELS 3 Zrotation Xrotation Yrotation
          JOINT LeftFoot
          {
            OFFSET 0 16.3835 0
            CHANNELS 3 Zrotation Xrotation Yrotation
            JOINT LeftToeBase
            {
              OFFSET 0 13.8496 0
              CHANNELS 3 Zrotation Xrotation Yrotation
              End Site
              {
                OFFSET -0.0263083 6.70727 -0.773117
              }
            }
          }
        }
      }
    }
  }
}
MOTION
Frames: 14
Frame Time: 0.00208333
55.0843 84.5678 3.2718 1.49137 -12.2995 -0.486832 -0.227609 -0.507842 0.0501213 -0.455516 2.99019 0.122647 -0.457525 4.63523 0.128262 -9.52849 8.9744 0.556871 10.9973 6.67026 -2.11889 64.8927 3.16113 1.0797 122.194 58.1662 -40.9316 3.19975e-006 2.68051e-007 1.58738e-006 -4.83492 48.5747 -0.198867 1.27909e-005 8.17177e-007 -3 8.0301 -4.95139 0.697631 -70.2559 -6.67732 4.58594 -144.146 55.8897 64.6976 -6.36111e-015 9.54166e-015 1.27222e-014 4.90744 49.7894 0.114872 2.00247e-005 -9.98712e-007 3 -8.03008 -4.95138 -0.697628 175.89 -5.71289 5.84473 180 7.01506e-015 178.759 176.626 10.228 179.968 2.54183e-006 4.10444e-006 0.147808 -19.2796 68.742 20.174 8.13649 25.2327 -3.48774 179.753 -7.42503 -0.133934 4.54188e-006 -4.6773e-006 -1.24691 -2.28476 -8.05433 0.05038 5.32596e-006 4.0825e-006 -0.128436 19.4555 68.9642 -20.3678 -8.13649 25.2327 3.48774 
55.0821 84.5692 3.26882 1.48496 -12.3176 -0.490276 -0.227517 -0.504998 0.0501233 -0.456427 2.99604 0.122575 -0.458435 4.64109 0.128048 -9.51847 8.99481 0.558224 10.9829 6.66687 -2.11603 64.8747 3.13557 1.06843 121.787 58.1648 -40.4853 3.19975e-006 2.68051e-007 1.58738e-006 -4.83744 48.6179 -0.195795 1.27909e-005 8.17177e-007 -3 8.0301 -4.95139 0.697631 -70.2239 -6.67659 4.58432 -143.624 55.9299 64.1772 3.18055e-015 0 7.95139e-015 4.92995 50.1466 0.0891172 2.00247e-005 -9.98712e-007 3 -8.03008 -4.95138 -0.697628 175.904 -5.73352 5.83739 180 7.01506e-015 178.759 176.632 10.2244 179.967 2.54183e-006 4.10444e-006 0.147773 -19.2756 68.7375 20.1697 8.13649 25.2327 -3.48774 179.766 -7.47476 -0.145529 4.54188e-006 -4.6773e-006 -1.24682 -2.29071 -8.0219 0.0510351 5.32596e-006 4.0825e-006 -0.128397 19.4565 68.9653 -20.3692 -8.13649 25.2327 3.48774 
55.074 84.5727 3.26853 1.4791 -12.3341 -0.492778 -0.227466 -0.502423 0.050124 -0.457307 3.00129 0.122497 -0.459315 4.64634 0.127849 -9.5105 9.01766 0.559461 10.9708 6.6593 -2.11365 64.856 3.1089 1.05663 121.38 58.1644 -40.0373 3.19975e-006 2.68051e-007 1.58738e-006 -4.83948 48.6528 -0.193298 1.27909e-005 8.17177e-007 -3 8.0301 -4.95139 0.697631 -70.1935 -6.67596 4.58281 -143.106 55.9691 63.6601 -6.36111e-015 6.36111e-015 2.38542e-015 4.9524 50.4959 0.0635498 2.00247e-005 -9.98712e-007 3 -8.03008 -4.95138 -0.697628 175.917 -5.75211 5.83038 180 7.01506e-015 178.759 176.639 10.2215 179.967 2.54182e-006 4.10444e-006 0.147739 -19.2718 68.7331 20.1656 8.13649 25.2327 -3.48774 179.778 -7.51832 -0.156318 4.54188e-006 -4.6773e-006 -1.24672 -2.29626 -7.99385 0.0515183 5.32596e-006 4.0825e-006 -0.128357 19.4573 68.9661 -20.3704 -8.13649 25.2327 3.48774 
55.0818 84.5719 3.26657 1.47394 -12.3485 -0.494074 -0.22748 -0.500219 0.0501228 -0.458172 3.00573 0.122412 -0.460179 4.65078 0.127668 -9.50482 9.04364 0.560559 10.9615 6.64673 -2.1118 64.8368 3.081 1.04422 120.972 58.1651 -39.5877 3.19975e-006 2.68051e-007 1.58738e-006 -4.84101 48.6791 -0.191421 1.27909e-005 8.17177e-007 -3 8.0301 -4.95139 0.697631 -70.1649 -6.67544 4.58143 -142.594 56.0075 63.1474 7.94503e-031 -6.36111e-015 7.15625e-015 4.97468 50.836 0.0382783 2.00247e-005 -9.98712e-007 3 -8.03008 -4.95138 -0.697628 175.928 -5.76816 5.82385 180 7.01506e-015 178.759 176.644 10.2192 179.966 2.54182e-006 4.10444e-006 0.147706 -19.2683 68.7291 20.1617 8.13649 25.2327 -3.48774 179.788 -7.55428 -0.16609 4.54188e-006 -4.6773e-006 -1.24662 -2.30132 -7.97115 0.0517921 5.32596e-006 4.0825e-006 -0.128316 19.4578 68.9667 -20.3712 -8.13649 25.2327 3.48774 
55.0723 84.5744 3.26875 1.46961 -12.3604 -0.493905 -0.227582 -0.498485 0.050119 -0.459033 3.00914 0.122319 -0.461039 4.65419 0.127506 -9.50167 9.07344 0.561496 10.9553 6.62833 -2.11056 64.8169 3.05173 1.03114 120.564 58.1667 -39.1364 3.19975e-006 2.68051e-007 1.58738e-006 -4.842 48.6962 -0.190204 1.27909e-005 8.17177e-007 -3 8.0301 -4.95139 0.697631 -70.1385 -6.675 4.58016 -142.089 56.045 62.6405 6.36111e-015 -3.18055e-015 1.66979e-014 4.99668 51.1657 0.0134165 2.00247e-005 -9.98712e-007 3 -8.03008 -4.95138 -0.697628 175.939 -5.78117 5.8179 180 7.01506e-015 178.759 176.649 10.2177 179.965 2.54182e-006 4.10444e-006 0.147673 -19.2651 68.7254 20.1583 8.13649 25.2327 -3.48774 179.798 -7.5812 -0.174633 4.54188e-006 -4.6773e-006 -1.24652 -2.30578 -7.95475 0.0518196 5.32596e-006 4.0825e-006 -0.128276 19.458 68.967 -20.3718 -8.13649 25.2327 3.48774 
55.0722 84.5769 3.26493 1.46627 -12.3694 -0.492008 -0.227797 -0.497322 0.0501121 -0.459905 3.01131 0.122217 -0.46191 4.65636 0.127368 -9.50128 9.10774 0.56225 10.9524 6.60329 -2.10999 64.7963 3.02096 1.01731 120.155 58.1692 -38.6833 3.19975e-006 2.68051e-007 1.58738e-006 -4.84243 48.7035 -0.189692 1.27909e-005 8.17177e-007 -3 8.0301 -4.95139 0.697631 -70.1144 -6.67463 4.57903 -141.593 56.0819 62.1406 -6.36111e-015 -6.36111e-015 1.59028e-015 5.01831 51.4839 -0.0109158 2.00247e-005 -9.98712e-007 3 -8.03008 -4.95138 -0.697628 175.948 -5.79064 5.81265 180 7.01506e-015 178.759 176.654 10.2171 179.964 2.54183e-006 4.10444e-006 0.14764 -19.2622 68.7221 20.1552 8.13649 25.2327 -3.48774 179.806 -7.59764 -0.181735 4.54188e-006 -4.6773e-006 -1.24642 -2.30953 -7.94562 0.0515634 5.32596e-006 4.0825e-006 -0.128238 19.4579 68.9669 -20.3719 -8.13649 25.2327 3.48774 
55.0646 84.5762 3.26868 1.46392 -12.3761 -0.488648 -0.228112 -0.496569 0.0501028 -0.460782 3.01253 0.122105 -0.462785 4.65758 0.127252 -9.50372 9.14608 0.562884 10.9527 6.57175 -2.11001 64.7749 2.98825 1.00253 119.744 58.1748 -38.227 3.19975e-006 2.68051e-007 1.58738e-006 -4.842 48.6969 -0.190199 1.27909e-005 8.17177e-007 -3 8.0301 -4.95139 0.697631 -70.0922 -6.674 4.57784 -141.1 56.1186 61.6433 -3.18055e-015 6.36111e-015 1.35174e-014 5.03968 51.7935 -0.0349468 2.00247e-005 -9.98712e-007 3 -8.03008 -4.95138 -0.697628 175.955 -5.79699 5.80808 180 7.01506e-015 178.759 176.658 10.2176 179.964 2.54183e-006 4.10444e-006 0.147608 -19.2597 68.7192 20.1525 8.13649 25.2327 -3.48774 179.813 -7.60399 -0.187557 4.54188e-006 -4.6773e-006 -1.24632 -2.3127 -7.94392 0.0509923 5.32596e-006 4.0825e-006 -0.128199 19.4574 68.9663 -20.3715 -8.13649 25.2327 3.48774 
55.0693 84.5769 3.26919 1.46238 -12.3812 -0.484318 -0.228494 -0.495991 0.0500923 -0.461641 3.01326 0.121986 -0.463643 4.65831 0.127156 -9.50875 9.18733 0.563474 10.9557 6.53474 -2.11052 64.7525 2.95341 0.986723 119.331 58.1849 -37.7661 3.19975e-006 2.68051e-007 1.58738e-006 -4.84053 48.6737 -0.191913 1.27909e-005 8.17177e-007 -3 8.0301 -4.95139 0.697631 -70.0712 -6.67288 4.57644 -140.606 56.1555 61.1435 -6.36111e-015 3.18055e-015 -3.18055e-015 5.06103 52.0979 -0.0589628 2.00247e-005 -9.98712e-007 3 -8.03008 -4.95138 -0.697628 175.961 -5.8011 5.80401 180 7.01506e-015 178.758 176.661 10.2191 179.963 2.54183e-006 4.10444e-006 0.147576 -19.2573 68.7164 20.1499 8.13649 25.2327 -3.48774 179.818 -7.6022 -0.192461 4.54188e-006 -4.6773e-006 -1.24621 -2.31548 -7.94862 0.0501263 5.32596e-006 4.0825e-006 -0.128159 19.4565 68.9654 -20.3707 -8.13649 25.2327 3.48774 
55.0729 84.5529 3.28009 1.46153 -12.3849 -0.479103 -0.228929 -0.495579 0.0500806 -0.462475 3.01353 0.121861 -0.464477 4.65858 0.127079 -9.51618 9.23116 0.56401 10.9612 6.49282 -2.11149 64.7291 2.91673 0.970034 118.915 58.1986 -37.301 3.19975e-006 2.68051e-007 1.58738e-006 -4.83818 48.636 -0.194672 1.27909e-005 8.17177e-007 -3 8.0301 -4.95139 0.697631 -70.0512 -6.6714 4.57491 -140.111 56.1923 60.6422 -9.54166e-015 0 -4.77083e-015 5.08231 52.3969 -0.0829262 2.00247e-005 -9.98712e-007 3 -8.03008 -4.95138 -0.697628 175.966 -5.80318 5.80038 180 7.01506e-015 178.758 176.665 10.2214 179.963 2.54182e-006 4.10444e-006 0.147545 -19.255 68.7137 20.1473 8.13649 25.2327 -3.48774 179.823 -7.59317 -0.196536 4.54188e-006 -4.6773e-006 -1.24611 -2.31791 -7.95897 0.0490053 5.32596e-006 4.0825e-006 -0.128117 19.4553 68.964 -20.3696 -8.13649 25.2327 3.48774 
55.074 84.5611 3.27275 1.46128 -12.3873 -0.473091 -0.229406 -0.495324 0.050068 -0.463279 3.01339 0.12173 -0.465278 4.65844 0.127019 -9.52579 9.27726 0.564482 10.9689 6.44654 -2.1129 64.7049 2.87848 0.952594 118.498 58.2152 -36.8322 3.19975e-006 2.68051e-007 1.58738e-006 -4.83508 48.5859 -0.198317 1.27909e-005 8.17177e-007 -3 8.0301 -4.95139 0.697631 -70.0325 -6.66973 4.57333 -139.617 56.229 60.1402 3.18055e-015 0 -1.27222e-014 5.10351 52.6902 -0.106797 2.00247e-005 -9.98712e-007 3 -8.03008 -4.95138 -0.697628 175.971 -5.80342 5.7971 180 7.01506e-015 178.758 176.668 10.2245 179.963 2.54182e-006 4.10444e-006 0.147515 -19.2527 68.7111 20.1449 8.13649 25.2327 -3.48774 179.826 -7.57779 -0.199873 4.54188e-006 -4.6773e-006 -1.246 -2.32002 -7.97419 0.0476689 5.32596e-006 4.0825e-006 -0.128073 19.4538 68.9624 -20.3681 -8.13649 25.2327 3.48774 
55.0752 84.5721 3.25527 1.46153 -12.3885 -0.466367 -0.22991 -0.495216 0.0500547 -0.464043 3.01288 0.121594 -0.466041 4.65793 0.126973 -9.53739 9.32532 0.564881 10.9788 6.39643 -2.11472 64.68 2.83894 0.934536 118.078 58.2338 -36.36 3.19975e-006 2.68051e-007 1.58738e-006 -4.83136 48.5256 -0.202687 1.27909e-005 8.17177e-007 -3 8.0301 -4.95139 0.697631 -70.0148 -6.668 4.57175 -139.125 56.2653 59.6385 -9.54166e-015 1.27222e-014 -2.06736e-014 5.12459 52.9776 -0.130535 2.00247e-005 -9.98712e-007 3 -8.03008 -4.95138 -0.697628 175.974 -5.80202 5.79411 180 7.01506e-015 178.758 176.671 10.2281 179.962 2.54183e-006 4.10444e-006 0.147485 -19.2506 68.7085 20.1426 8.13649 25.2327 -3.48774 179.829 -7.55697 -0.202562 4.54188e-006 -4.6773e-006 -1.24589 -2.32183 -7.99351 0.0461569 5.32596e-006 4.0825e-006 -0.128028 19.452 68.9604 -20.3663 -8.13649 25.2327 3.48774 
55.0754 84.5713 3.25814 1.46215 -12.3887 -0.459017 -0.23043 -0.495248 0.0500406 -0.464762 3.01204 0.121454 -0.466759 4.65709 0.12694 -9.55078 9.37501 0.565198 10.9906 6.34305 -2.11695 64.6545 2.79837 0.915996 117.656 58.2536 -35.885 3.19975e-006 2.68051e-007 1.58738e-006 -4.82718 48.4571 -0.207622 1.27909e-005 8.17177e-007 -3 8.0301 -4.95139 0.697631 -69.9984 -6.66635 4.57026 -138.635 56.3012 59.1381 -1.27222e-014 2.22639e-014 -2.38542e-014 5.14552 53.2586 -0.154096 2.00247e-005 -9.98712e-007 3 -8.03008 -4.95138 -0.697628 175.977 -5.79919 5.79132 180 7.01506e-015 178.758 176.673 10.2321 179.962 2.54183e-006 4.10444e-006 0.147455 -19.2485 68.7061 20.1403 8.13649 25.2327 -3.48774 179.831 -7.53161 -0.204693 4.54188e-006 -4.6773e-006 -1.24577 -2.32339 -8.01618 0.0445092 5.32596e-006 4.0825e-006 -0.127981 19.4501 68.9583 -20.3643 -8.13649 25.2327 3.48774 
55.08 84.5719 3.25452 1.46306 -12.3878 -0.451128 -0.230951 -0.495408 0.0500261 -0.465428 3.0109 0.121311 -0.467423 4.65595 0.126917 -9.56576 9.42602 0.565424 11.0042 6.28695 -2.11955 64.6284 2.75705 0.897107 117.233 58.2737 -35.4079 3.19975e-006 2.68051e-007 1.58738e-006 -4.82267 48.3825 -0.212962 1.27909e-005 8.17177e-007 -3 8.0301 -4.95139 0.697631 -69.9831 -6.66493 4.56894 -138.148 56.3366 58.6398 5.73808e-031 -3.18055e-015 1.03368e-014 5.16628 53.5332 -0.177436 2.00247e-005 -9.98712e-007 3 -8.03008 -4.95138 -0.697628 175.98 -5.79511 5.78867 180 7.01506e-015 178.758 176.676 10.2365 179.961 2.54183e-006 4.10444e-006 0.147426 -19.2465 68.7037 20.1381 8.13649 25.2327 -3.48774 179.833 -7.5026 -0.206356 4.54188e-006 -4.6773e-006 -1.24566 -2.32471 -8.04143 0.0427654 5.32596e-006 4.0825e-006 -0.127932 19.448 68.956 -20.3622 -8.13649 25.2327 3.48774 
55.073 84.5719 3.25465 1.46414 -12.3861 -0.442786 -0.231462 -0.495688 0.0500112 -0.466034 3.00951 0.121165 -0.468026 4.65456 0.126903 -9.58212 9.47803 0.565548 11.0195 6.22867 -2.1225 64.6019 2.71527 0.878005 116.809 58.2933 -34.9291 3.19975e-006 2.68051e-007 1.58738e-006 -4.81797 48.3039 -0.21855 1.27909e-005 8.17177e-007 -3 8.0301 -4.95139 0.697631 -69.969 -6.66389 4.56784 -137.666 56.3715 58.1447 -6.36111e-015 9.54166e-015 -5.56597e-015 5.18683 53.8009 -0.200507 2.00247e-005 -9.98712e-007 3 -8.03008 -4.95138 -0.697628 175.983 -5.79 5.78609 180 7.01506e-015 178.757 176.678 10.241 179.961 2.54183e-006 4.10444e-006 0.147397 -19.2445 68.7014 20.136 8.13649 25.2327 -3.48774 179.835 -7.47085 -0.207643 4.54188e-006 -4.6773e-006 -1.24554 -2.32583 -8.06849 0.0409655 5.32596e-006 4.0825e-006 -0.127881 19.4458 68.9536 -20.3599 -8.13649 25.2327 3.48774 
